<?xml version="1.0" encoding="UTF-8" standalone="no"?>
<svg
   xmlns:dc="http://purl.org/dc/elements/1.1/"
   xmlns:cc="http://creativecommons.org/ns#"
   xmlns:rdf="http://www.w3.org/1999/02/22-rdf-syntax-ns#"
   xmlns:svg="http://www.w3.org/2000/svg"
   xmlns="http://www.w3.org/2000/svg"
   xmlns:sodipodi="http://sodipodi.sourceforge.net/DTD/sodipodi-0.dtd"
   xmlns:inkscape="http://www.inkscape.org/namespaces/inkscape"
   width="508pt"
   height="446pt"
   viewBox="0 0 508 446"
   version="1.1"
   id="svg2947"
   inkscape:version="0.47+devel r9295"
   sodipodi:docname="trans.svg">
  <title
     id="title3713">OffView</title>
  <metadata
     id="metadata2977">
    <rdf:RDF>
      <cc:Work
         rdf:about="">
        <dc:format>image/svg+xml</dc:format>
        <dc:type
           rdf:resource="http://purl.org/dc/dcmitype/StillImage" />
        <dc:title>OffView</dc:title>
      </cc:Work>
    </rdf:RDF>
  </metadata>
  <defs
     id="defs2975" />
  <sodipodi:namedview
     pagecolor="#ffffff"
     bordercolor="#666666"
     borderopacity="1"
     objecttolerance="10"
     gridtolerance="10"
     guidetolerance="10"
     inkscape:pageopacity="0"
     inkscape:pageshadow="2"
     inkscape:window-width="1920"
     inkscape:window-height="1153"
     id="namedview2973"
     showgrid="false"
     inkscape:zoom="1.6699552"
     inkscape:cx="317.5"
     inkscape:cy="278.75"
     inkscape:window-x="-4"
     inkscape:window-y="-4"
     inkscape:window-maximized="1"
     inkscape:current-layer="svg2947" />
  <path
     d="m 224.42,5.6380051 c 12.43,-1.87 25.05,-1.28 37.58,-1.32 18.35,-0.4 36.59,2.85 54.27,7.5399999 42.6,11.54 81.45,36.56 109.26,70.86 23.52,0.29 73.96714,0.18292 73.96714,0.18292 0,0 0.14286,30.377085 0.21286,45.247085 0.01,29.67 -0.01,59.34 0.01,89.01 0.29,9.75 -5.77,18.74 -13.56,24.15 -4.2,3.04 -9.27,4.36 -14.24,5.55 -1.08,17.38 -5.6,34.39 -11.21,50.82 -13.24,37.23 -37.05,70.62 -68.12,95.06 -34.55,27.3 -77.71,43.36 -121.61,46.02 -16.91,0.3 -33.97,0.92 -50.72,-1.89 -43.42,-6.31 -85.04,-25.74 -116.98,-55.95 -37.39,-34.71 -60.77,-83.58 -65.97,-134.21 -6.12,-1.89 -12.23,-4.41 -16.72,-9.15 -5.37,-5.35 -9.16,-12.67 -9.1,-20.37 0.04,-43.72 0.06057,-134.593567 0.06057,-134.593567 0,0 48.679426,0.493562 72.369426,0.08356 17.230004,-20.86 38.260004,-38.61 62.020004,-51.61 24.19,-13.43 51.04,-21.9499999 78.48,-25.4299979 z"
     id="path2951"
     inkscape:connector-curvature="0"
     style="fill:#0d0b0a"
     sodipodi:nodetypes="ccccccccccccccccccccc" />
  <path
     d="m 230.26,17.468005 c 11.52,-1.52 23.19,-1.01 34.78,-1.01 54.18,1.81 107.78,25.63 144,66.23 -25.01,0.35 -50.03,0.04 -75.04,0.15 -69,0 -138,0 -207,0 -8.79,-0.09 -17.58,0.19 -26.37,-0.17 32.92,-37.11 80.47,-60.12 129.63,-65.2 z"
     id="path2953"
     inkscape:connector-curvature="0"
     style="fill:#fdfd03" />
  <path
     d="m 16.55,87.858005 c 159.35,-0.09 318.72,-0.04 478.08,-0.03 0.34,42.430005 0.03,84.870005 0.16,127.310005 1.3,14.36 -12.58,27.61 -26.78,26.42 -56.04,-0.05 -112.08,0.07 -168.12,-0.05 -5.33,-12.76 -10.36,-25.77 -17.89,-37.46 -4.72,-7.61 -10.45,-14.96 -18.21,-19.66 -6.42,-4.01 -15.09,-4.06 -21.45,0.12 -8.61,5.43 -14.13,14.38 -18.89,23.13 -5.96,10.77 -9.59,22.58 -14.19,33.93 -53.76,-0.04 -107.51,0.01 -161.26,-0.02 -4.75,-0.08 -9.65,0.48 -14.2,-1.2 -9.86,-3.6 -17.82,-13.41 -17.41,-24.18 0.01,-42.77 -0.12,-85.54 0.16,-128.310005 z"
     id="path2955"
     inkscape:connector-curvature="0"
     style="fill:#fdfefd" />
  <path
     d="m 75.49,119.78801 c 3.28,-1.6 7,-1.03 10.51,-1.11 35.68,0 71.35,0.03 107.02,-0.01 9.53,-0.89 19.23,7.68 18.75,17.41 0,18.71 -0.02,37.42 0.01,56.13 0.89,9.68 -8.12,18.83 -17.73,18.5 -37.37,-0.03 -74.73,-0.04 -112.1,0 -9.27,0.38 -18.18,-8.17 -17.74,-17.53 -0.01,-19.02 0.02,-38.03 -0.02,-57.05 -0.52,-7.23 4.84,-13.74 11.3,-16.34 z"
     id="path2957"
     inkscape:connector-curvature="0"
     style="fill:#0d0b0a" />
  <path
     d="m 308.66,119.95801 c 1.98,-0.87 4.1,-1.38 6.28,-1.28 37.36,-0.01 74.73,0.04 112.1,-0.02 9.88,-0.77 19.19,8.58 18.53,18.45 -0.07,18.36 -0.05,36.71 -0.01,55.07 0.63,9.87 -8.63,19.23 -18.52,18.52 -37.37,-0.02 -74.73,-0.02 -112.1,0 -7.02,0.03 -13.37,-5.07 -16.09,-11.34 -1.61,-3.53 -1.23,-7.45 -1.24,-11.21 0.03,-17.36 0.01,-34.71 0,-52.07 0.06,-6.94 4.79,-13.35 11.05,-16.12 z"
     id="path2959"
     inkscape:connector-curvature="0"
     style="fill:#0d0b0a" />
  <path
     d="m 79.19,123.80801 c 3.25,-0.5 6.55,-0.26 9.82,-0.3 35,0.06 70.01,-0.03 105.02,0.04 6.22,-0.15 12.81,4.95 12.59,11.53 0.15,19.38 0.03,38.76 0.05,58.14 0.53,7.19 -6.8,12.91 -13.62,12.51 -37.04,-0.03 -74.08,-0.02 -111.12,0 -6.62,0.31 -13.28,-5.7 -12.65,-12.52 0.02,-19.37 -0.06,-38.75 0.06,-58.13 -0.31,-5.67 4.77,-9.98 9.85,-11.27 z"
     id="path2961"
     inkscape:connector-curvature="0"
     style="fill:#0346f5" />
  <path
     d="m 313.25,123.91801 c 2.22,-0.4 4.48,-0.38 6.73,-0.41 35.36,0.04 70.72,-0.01 106.08,0.02 5.19,-0.37 10.26,2.57 12.82,7.03 2.04,3.86 1.71,8.37 1.76,12.59 -0.17,16.69 0.06,33.38 -0.1,50.07 0.05,5.74 -4.17,11.18 -9.85,12.26 -4.21,0.5 -8.47,0.18 -12.7,0.23 -32,0.03 -63.99,-0.05 -95.99,0.04 -3.71,-0.1 -7.58,0.47 -11.17,-0.72 -4.57,-2.06 -8.53,-6.55 -8.33,-11.82 -0.08,-18.03 0.09,-36.07 -0.09,-54.11 0.05,-3.52 0.06,-7.41 2.26,-10.37 2.15,-2.58 5.34,-4.12 8.58,-4.81 z"
     id="path2963"
     inkscape:connector-curvature="0"
     style="fill:#be020b" />
  <path
     d="m 339.46,140.91801 c 7.25,-0.84 14.46,3.28 18.25,9.37 5.72,10.06 5.11,24 -3,32.63 -5.57,6.01 -15.6,7.73 -22.42,2.82 -7.55,-4.74 -10.56,-14.08 -9.91,-22.62 -0.4,-10.06 6.64,-20.88 17.08,-22.2 z"
     id="path2965"
     inkscape:connector-curvature="0"
     style="fill:#0d0b0a" />
  <path
     d="m 163.21,141.88801 c 4.13,-0.83 8.76,-0.93 12.49,1.32 7.29,4.11 11.75,12.59 11.06,20.93 0.81,8.38 -3.05,17.16 -10.27,21.67 -3.89,2.61 -8.89,2.3 -13.32,1.68 -5.58,-1.7 -9.9,-6.34 -12.27,-11.55 -2.05,-4.3 -1.71,-9.18 -1.68,-13.81 -0.32,-8.71 5.48,-17.75 13.99,-20.24 z"
     id="path2967"
     inkscape:connector-curvature="0"
     style="fill:#0d0b0a" />
  <path
     d="m 236.37,196.54801 c 4.21,-4.95 9.63,-10.35 16.62,-10.17 4.51,-0.3 8.62,2.04 12.04,4.75 8.31,7.02 13.84,16.6 18.87,26.1 4.24,8.47 8.02,17.17 11.19,26.1 1.03,2.84 1.79,5.87 3.74,8.27 0.88,0.01 2.65,0.03 3.53,0.04 0.03,-1.73 0.04,-3.45 0.07,-5.17 52.4,0.13 104.81,-0.09 157.21,0.11 -4.22,41.7 -21.99,81.99 -50.02,113.17 -25.17,28.22 -58.64,48.76 -95.01,58.96 -28.37,8.1 -58.36,9.96 -87.6,6.51 -37.68,-4.62 -74.19,-19.5 -103.78,-43.38 -35.57,-28.39 -60.49,-69.49 -69.93,-113.96 -1.36,-7.06 -3.19,-14.11 -3.06,-21.35 52.41,-0.05 104.81,-0.04 157.21,0 -0.03,1.63 -0.06,3.27 -0.09,4.91 1.27,0.05 2.55,0.12 3.82,0.2 6.9,-18.93 12.54,-38.98 25.19,-55.09 z"
     id="path2969"
     inkscape:connector-curvature="0"
     style="fill:#fdfd03" />
  <path
     d="m 134.04,317.08801 c 3.63,-3.8 7.81,-7.01 11.95,-10.23 4.23,4.22 8.04,8.82 12.23,13.07 20.91,21.59 47.46,39.43 77.76,43.63 9.32,0.7 18.7,0.51 28.02,0.16 26.92,-3.27 51.73,-16.17 73.05,-32.47 9.8,-7.22 18.21,-16.06 26.87,-24.55 3.84328,3.52672 7.91084,6.98687 11.83,10.52 -3,4.15 -6.86,7.6 -10.54,11.14 -19.06,18.24 -41.31,33.45 -65.96,43.05 -22.67,8.74 -47.75,11.95 -71.69,7.18 -25.91,-4.96 -49.43,-18.63 -69.02,-35.96 -8.68,-7.99 -17.24,-16.22 -24.5,-25.54 z"
     id="path2971"
     inkscape:connector-curvature="0"
     style="fill:#0d0b0a"
     sodipodi:nodetypes="ccccccccccccc" />
</svg>
